<?xml version="1.0" encoding="iso-8859-1"?>
<!-- Generator: Adobe Illustrator 19.0.0, SVG Export Plug-In . SVG Version: 6.00 Build 0)  -->
<svg version="1.1" id="Layer_1" xmlns="http://www.w3.org/2000/svg" xmlns:xlink="http://www.w3.org/1999/xlink" x="0px" y="0px"
	 viewBox="0 0 508.948 508.948" style="enable-background:new 0 0 508.948 508.948;" xml:space="preserve">
<path style="fill:#C19D7B;" d="M360.604,294.654l13.902-50.861h-52.217h-67.136h-1.695H186.66h-52.217l13.902,50.861
	C85.277,306.183,37.468,361.452,37.468,427.91v81.038h434.013V427.91C471.481,361.452,423.672,306.183,360.604,294.654z"/>
<g>
	<polygon style="fill:#FF667C;" points="269.054,339.412 291.433,317.033 254.474,280.074 217.515,317.033 239.894,339.412 	"/>
	<polygon style="fill:#FF667C;" points="239.894,339.412 217.515,456.392 254.474,493.351 291.433,456.392 269.054,339.412 	"/>
</g>
<g>
	<circle style="fill:#EEB490;" cx="167.332" cy="171.232" r="35.603"/>
	<circle style="fill:#EEB490;" cx="341.616" cy="171.232" r="35.603"/>
</g>
<path style="fill:#FACCB4;" d="M254.474,50.861L254.474,50.861c-50.522,0-91.211,40.689-91.211,91.211v66.797
	c0,50.522,40.689,91.211,91.211,91.211l0,0c50.522,0,91.211-40.689,91.211-91.211v-66.797
	C345.685,91.889,304.996,50.861,254.474,50.861z"/>
<g>
	<path style="fill:#56545F;" d="M254.135,122.066H132.069c-1.695,0-3.391-0.678-4.747-2.034l-16.275-16.275
		c-2.713-2.713-2.713-6.781,0-9.494c2.713-2.713,6.781-2.713,9.494,0l14.241,14.241h119.015c3.73,0,6.781,3.052,6.781,6.781
		S257.865,122.066,254.135,122.066z"/>
	<path style="fill:#56545F;" d="M376.879,122.066H254.813c-3.73,0-6.781-3.052-6.781-6.781s3.052-6.781,6.781-6.781h119.015
		l14.241-14.241c2.713-2.713,6.781-2.713,9.494,0c2.713,2.713,2.713,6.781,0,9.494l-16.276,16.275
		C380.27,121.388,378.575,122.066,376.879,122.066z"/>
	<polygon style="fill:#56545F;" points="291.772,0 254.474,25.77 217.176,0 165.298,115.285 343.65,115.285 	"/>
</g>
<g>
</g>
<g>
</g>
<g>
</g>
<g>
</g>
<g>
</g>
<g>
</g>
<g>
</g>
<g>
</g>
<g>
</g>
<g>
</g>
<g>
</g>
<g>
</g>
<g>
</g>
<g>
</g>
<g>
</g>
</svg>
